# xmcd CD database generated by RipIT
#
# Track frame offsets:
# 150
# 14934
# 31980
# 52499
# 67110
# 86744
# 106417
# 132762
# 146967
# 165418
# 181245
# 201257
# 221559
# 235300
# 251885
# 270541
# 291828
# 313760
#
# Disc length: 4448 seconds
#
# Revision: 1
# Processed by: cddbd v1.5.2PL0 Copyright (c) Steve Scherf et al.
# Submitted via: RipIT 3.9.0 www.suwald.com/ripit/ripit.html on 2015-03-11 at 17:23
#
DISCID=24115e12
DTITLE=Frank Muschalle Trio - Fine Blend
DYEAR=2011
DGENRE=Jazz
TTITLE0=Struttin' Along
TTITLE1=Contact in Como
TTITLE2=Trouble in mind
TTITLE3=Raisin sand boogie
TTITLE4=after hour joint
TTITLE5=night clerk
TTITLE6=guitar opener
TTITLE7=you got me reeling and rocking
TTITLE8=big star falling blues
TTITLE9=sunshine blues
TTITLE10=blues o' mighty
TTITLE11=blue creek
TTITLE12=confessin'the blues
TTITLE13=pee wee blues
TTITLE14=little and low
TTITLE15=quotin the blues
TTITLE16=if you ever get lonesome
TTITLE17=I'd rather drink muddy water
EXTD=YEAR: 2011\n
EXTT0=
EXTT1=
EXTT2=
EXTT3=
EXTT4=
EXTT5=
EXTT6=
EXTT7=
EXTT8=
EXTT9=
EXTT10=
EXTT11=
EXTT12=
EXTT13=
EXTT14=
EXTT15=
EXTT16=
EXTT17=
PLAYORDER=
